<?xml version="1.0" standalone="no"?>
<!DOCTYPE svg PUBLIC "-//W3C//DTD SVG 20010904//EN"
 "http://www.w3.org/TR/2001/REC-SVG-20010904/DTD/svg10.dtd">
<svg version="1.0" xmlns="http://www.w3.org/2000/svg"
 width="258.000000pt" height="300.000000pt" viewBox="0 0 258.000000 300.000000"
 preserveAspectRatio="xMidYMid meet">

<g transform="translate(0.000000,300.000000) scale(0.100000,-0.100000)"
fill="#000000" stroke="none">
<path d="M1080 2985 c-506 -77 -844 -372 -994 -868 -63 -209 -92 -446 -83
-692 29 -824 408 -1315 1087 -1410 268 -37 557 -5 775 86 162 67 350 219 444
358 207 305 186 712 -49 964 -83 89 -182 159 -287 202 -2 1 -7 37 -13 81 -51
381 -281 594 -645 594 -152 0 -282 -41 -400 -125 -54 -38 -145 -135 -145 -154
0 -7 195 -141 206 -141 4 0 31 23 60 50 63 60 122 87 215 100 92 13 186 -1
265 -40 89 -44 147 -123 172 -238 l10 -43 -71 8 c-40 4 -137 7 -217 7 -217 -2
-348 -38 -477 -130 -148 -106 -221 -277 -193 -456 29 -187 157 -329 355 -395
71 -23 96 -26 215 -26 119 0 144 3 215 26 155 52 272 153 344 301 39 79 81
216 81 263 0 30 9 29 56 -5 120 -87 184 -220 184 -382 0 -307 -264 -570 -637
-635 -113 -20 -354 -20 -469 0 -454 78 -709 364 -801 900 -24 140 -24 490 0
630 51 293 146 504 297 655 130 130 296 210 511 246 151 25 408 16 544 -20
199 -52 374 -161 492 -306 61 -76 141 -226 174 -328 13 -40 28 -72 33 -72 12
0 239 60 243 64 2 1 -10 40 -26 87 -70 209 -167 368 -310 510 -174 173 -354
266 -617 320 -133 27 -411 34 -544 14z m532 -1536 l88 -12 0 -37 c0 -58 -36
-185 -72 -251 -59 -111 -142 -159 -289 -167 -156 -8 -263 36 -317 127 -31 54
-35 136 -9 187 21 40 90 102 135 121 99 41 288 54 464 32z"/>
</g>
</svg>
